<?xml version="1.0" encoding="UTF-8"?>
<svg version="1.1" xmlns="http://www.w3.org/2000/svg" width="200" height="200">
<path d="M0 0 C1.60208817 -0.01073296 1.60208817 -0.01073296 3.23654175 -0.02168274 C4.98674622 -0.02571609 4.98674622 -0.02571609 6.77230835 -0.02983093 C8.62177567 -0.03968773 8.62177567 -0.03968773 10.50860596 -0.04974365 C14.59439335 -0.06947501 18.6801415 -0.08114411 22.76596069 -0.09111023 C24.17608026 -0.09515988 25.58619964 -0.09927686 26.99631882 -0.10346031 C33.62460329 -0.12250489 40.25287671 -0.13673564 46.88118327 -0.14507228 C54.51406267 -0.15483259 62.14665115 -0.18112334 69.77942812 -0.22157317 C75.69044659 -0.25181538 81.60138205 -0.26654893 87.51247633 -0.26985329 C91.03737591 -0.27219518 94.56196446 -0.2810417 98.08678055 -0.30631447 C102.02632004 -0.33410463 105.96548246 -0.32973932 109.90512085 -0.32279968 C111.63710724 -0.34201477 111.63710724 -0.34201477 113.40408325 -0.36161804 C121.80681338 -0.30784088 128.25000348 1.50173324 135.47689819 5.77217102 C140.93902034 11.53774439 144.79128612 18.24658009 144.90390015 26.26631165 C144.923153 27.46906738 144.923153 27.46906738 144.9427948 28.69612122 C144.95018173 29.55653015 144.95756866 30.41693909 144.96517944 31.30342102 C144.97325119 32.20153503 144.98132294 33.09964905 144.98963928 34.02497864 C145.00345987 35.92799463 145.01419107 37.83103519 145.02206421 39.73408508 C145.03353542 41.66189441 145.05390933 43.58967321 145.08358765 45.51728821 C145.34377619 62.43099704 143.64545376 75.97720678 131.47689819 88.70967102 C128.72689819 91.14717102 128.72689819 91.14717102 126.72689819 91.14717102 C126.73578064 92.04839691 126.74466309 92.9496228 126.7538147 93.87815857 C126.83404942 102.38216837 126.89490775 110.88605057 126.93414688 119.39035225 C126.95499857 123.76225593 126.98327161 128.13384616 127.02865601 132.50556946 C127.07220066 136.72661789 127.09605349 140.94736531 127.10640717 145.16862106 C127.11378313 146.77695833 127.12818687 148.38527961 127.14981842 149.99348831 C127.17896831 152.25096649 127.18284956 154.50720991 127.18099976 156.7648468 C127.1898822 158.04836029 127.19876465 159.33187378 127.20791626 160.65428162 C126.63420127 164.82028522 125.40632259 166.9346811 122.72689819 170.14717102 C119.67006459 172.07132705 117.31180457 172.40085423 113.73059082 172.41459656 C112.22080154 172.42739151 112.22080154 172.42739151 110.68051147 172.44044495 C109.58223022 172.43953857 108.48394897 172.4386322 107.35238647 172.43769836 C105.61032425 172.4477742 105.61032425 172.4477742 103.83306885 172.45805359 C99.98773947 172.47707637 96.14258422 172.48095994 92.29721069 172.48310852 C90.30167724 172.48790974 88.30614375 172.49271432 86.31061161 172.49802935 C80.03546117 172.51430693 73.7603681 172.5191989 67.48519897 172.51777649 C61.01855961 172.51657525 54.5522541 172.53767464 48.0856992 172.56926382 C42.52801769 172.59544262 36.97044511 172.60614312 31.41270244 172.60486567 C28.0958409 172.60435649 24.77934253 172.61186104 21.46252823 172.63122177 C17.76146948 172.6508027 14.06127138 172.64507377 10.36019897 172.63301086 C9.26596619 172.64424988 8.1717334 172.65548889 7.04434204 172.66706848 C0.99069923 172.61689501 -2.74773647 172.33607839 -7.27310181 168.14717102 C-9.86384501 164.71496353 -9.51460063 161.18182981 -9.50015259 156.99189758 C-9.50044464 156.27930283 -9.50073669 155.56670807 -9.5010376 154.83251953 C-9.49964757 152.48415321 -9.48410203 150.13610671 -9.46841431 147.78779602 C-9.46468301 146.15683668 -9.46183659 144.5258751 -9.45983887 142.89491272 C-9.45221161 138.60737391 -9.43257093 134.31997112 -9.41043091 130.03248596 C-9.38995293 125.65536845 -9.38083298 121.2782289 -9.37075806 116.90107727 C-9.34932416 108.31637951 -9.31519919 99.7317922 -9.27310181 91.14717102 C-9.8925769 90.85310364 -10.512052 90.55903625 -11.15029907 90.25605774 C-19.48985273 85.89973195 -23.42155522 76.60390361 -26.27310181 68.14717102 C-27.06673305 65.37107019 -27.40994047 62.88110543 -27.45010376 59.99629211 C-27.462939 59.18799957 -27.47577423 58.37970703 -27.48899841 57.54692078 C-27.50007881 56.24689621 -27.50007881 56.24689621 -27.51138306 54.92060852 C-27.5194548 54.01775116 -27.52752655 53.1148938 -27.5358429 52.18467712 C-27.54966083 50.2732687 -27.56039321 48.36183583 -27.56826782 46.45039368 C-27.57976066 44.50891313 -27.60016951 42.56746351 -27.62979126 40.62617493 C-27.94533 19.9345898 -27.94533 19.9345898 -23.27310181 12.14717102 C-22.73685181 11.23967102 -22.20060181 10.33217102 -21.64810181 9.39717102 C-15.3776928 3.45678354 -8.61563729 0.03970789 0 0 Z M-14.14810181 14.95967102 C-14.97954712 15.92840149 -14.97954712 15.92840149 -15.82778931 16.91670227 C-19.09100392 21.95263617 -19.59021223 27.06309368 -19.60903931 32.93232727 C-19.61569611 33.6698674 -19.62235291 34.40740753 -19.62921143 35.16729736 C-19.6392963 36.72460965 -19.64402974 38.28196479 -19.64370728 39.83930969 C-19.64804498 42.17901903 -19.68430607 44.51678351 -19.72232056 46.8561554 C-19.82481717 60.31788334 -17.96137764 72.06788854 -8.27310181 82.14717102 C-5.21349725 85.24374445 -5.21349725 85.24374445 -1.27310181 86.14717102 C-1.27976364 87.0801149 -1.28642548 88.01305878 -1.29328918 88.97427368 C-1.35405785 97.75883972 -1.39905396 106.54336322 -1.42853832 115.32809162 C-1.44420604 119.84461528 -1.46546437 124.3609695 -1.49942017 128.87739563 C-1.53197436 133.234577 -1.54994648 137.5915952 -1.55773354 141.94888878 C-1.56328415 143.6127142 -1.57412298 145.27653052 -1.59029198 146.94028664 C-1.61201431 149.26766506 -1.61507098 151.59436603 -1.61367798 153.92182922 C-1.62446381 154.61234879 -1.63524963 155.30286835 -1.6463623 156.01431274 C-1.64554359 159.65603524 -1.64554359 159.65603524 -0.04233265 162.82386494 C2.24163037 164.53216783 3.55788115 164.52427381 6.39535522 164.52812195 C7.83385834 164.54081116 7.83385834 164.54081116 9.30142212 164.55375671 C10.35190735 164.54768402 11.40239258 164.54161133 12.48471069 164.53535461 C13.59223694 164.54061157 14.69976318 164.54586853 15.84085083 164.55128479 C19.51134231 164.56451676 23.1814021 164.55573508 26.85189819 164.54560852 C29.39633264 164.54762833 31.94076652 164.55053898 34.48519897 164.55430603 C39.82168617 164.55873374 45.15801784 164.55256892 50.49447632 164.5382843 C56.66516919 164.52195741 62.83556471 164.52724585 69.00625038 164.54376352 C74.94096989 164.55901405 80.87559694 164.55740473 86.81033325 164.54861832 C89.33657879 164.54661295 91.86283188 164.54908732 94.3890686 164.55605698 C97.9159473 164.56365123 101.44225004 164.55209501 104.96908569 164.53535461 C106.01957092 164.54142731 107.07005615 164.5475 108.15237427 164.55375671 C109.11137634 164.54529724 110.07037842 164.53683777 111.05844116 164.52812195 C111.89245453 164.52699087 112.7264679 164.52585979 113.58575439 164.52469444 C116.25115625 164.05473459 117.13784328 163.3119626 118.72689819 161.14717102 C119.00729228 158.65379484 119.10639059 156.4132854 119.06747437 153.92182922 C119.06791245 153.18987335 119.06835052 152.45791748 119.06880188 151.70378113 C119.06671217 149.28489997 119.04337334 146.86671231 119.01986694 144.44795227 C119.01427162 142.77072529 119.01000122 141.0934934 119.00700378 139.41625977 C118.99554998 135.00204427 118.96607831 130.58812497 118.93289185 126.17402649 C118.90220244 121.66967272 118.88850087 117.16527108 118.87338257 112.6608429 C118.84120903 103.82282215 118.79000627 94.98502121 118.72689819 86.14717102 C119.51314575 85.85149231 120.29939331 85.5558136 121.10946655 85.25117493 C127.24683726 82.6624994 131.04580508 76.18848196 133.90267944 70.39717102 C136.16301108 64.22678702 137.03617283 58.50671167 137.02767944 51.99092102 C137.03410713 50.87106812 137.03410713 50.87106812 137.04066467 49.72859192 C137.04636524 48.1622366 137.0469401 46.59585484 137.04257202 45.02949524 C137.03940581 42.65289167 137.06294493 40.27752813 137.08822632 37.90107727 C137.09049939 36.36852673 137.09120277 34.8359729 137.09017944 33.30342102 C137.10399406 32.25462769 137.10399406 32.25462769 137.11808777 31.18464661 C137.06259306 25.17704141 135.78382234 19.66460058 131.89486694 14.90498352 C131.24131226 14.3661554 130.58775757 13.82732727 129.91439819 13.27217102 C128.94566772 12.44072571 128.94566772 12.44072571 127.95736694 11.59248352 C121.67115987 7.51910941 115.20073863 7.85633342 107.97348022 7.87251282 C106.7955188 7.86740189 105.61755737 7.86229095 104.40390015 7.85702515 C101.18476431 7.84553188 97.96578871 7.84305162 94.74663782 7.84558845 C92.05298548 7.84666129 89.35935666 7.84176671 86.66570938 7.83698303 C80.3070186 7.82590267 73.94838691 7.82544191 67.58969116 7.83149719 C61.04471623 7.83753436 54.49995641 7.82522928 47.95501816 7.80392712 C42.32253313 7.78627344 36.69011633 7.78031574 31.05760467 7.78356487 C27.69942679 7.78537212 24.34140233 7.78279782 20.98324966 7.76885033 C17.23503376 7.75649195 13.4873134 7.76327481 9.73910522 7.77485657 C8.6365036 7.76721283 7.53390198 7.75956909 6.39788818 7.75169373 C-1.48220505 7.80541708 -8.80316627 8.47669897 -14.14810181 14.95967102 Z " fill="#000000" transform="translate(41.273101806640625,13.852828979492188)"/>
<path d="M0 0 C23.76 0 47.52 0 72 0 C72 13.18323559 71.19388912 24.88672196 62 35 C59.18132492 37.41980596 56.28507638 39.27450534 53 41 C52.35804687 41.3403125 51.71609375 41.680625 51.0546875 42.03125 C41.94486525 45.88952766 29.07370611 45.43644988 19.8125 42.375 C10.07264606 38.05610452 5.97374689 31.77567126 2 22 C-0.59346263 14.6291062 0 8.02631013 0 0 Z M27 31 C25.59533047 33.05093145 25.59533047 33.05093145 25 35 C31.35337785 36.69423409 38.64662215 36.69423409 45 35 C43.91897181 31.86501824 43.02159388 31.0131441 40.125 29.25 C34.81218684 27.12487473 31.72450296 28.12421559 27 31 Z " fill="#000000" transform="translate(66,114)"/>
<path d="M0 0 C3 0.625 3 0.625 4.6640625 2.7265625 C6.27789671 6.2279221 6.39986114 8.77981033 6.375 12.625 C6.38273438 13.82125 6.39046875 15.0175 6.3984375 16.25 C5.97165396 19.86510763 5.24933622 21.784289 3 24.625 C0 25.25 0 25.25 -3 24.625 C-6.10096543 20.70875728 -6.40675297 17.53612556 -6.375 12.625 C-6.38273438 11.42875 -6.39046875 10.2325 -6.3984375 9 C-5.83558378 4.23229792 -4.94653314 1.03052774 0 0 Z " fill="#000000" transform="translate(138,75.375)"/>
<path d="M0 0 C3 0.625 3 0.625 4.6640625 2.7265625 C6.27789671 6.2279221 6.39986114 8.77981033 6.375 12.625 C6.38273437 13.82125 6.39046875 15.0175 6.3984375 16.25 C5.97165396 19.86510763 5.24933622 21.784289 3 24.625 C0 25.25 0 25.25 -3 24.625 C-6.10096543 20.70875728 -6.40675297 17.53612556 -6.375 12.625 C-6.38273437 11.42875 -6.39046875 10.2325 -6.3984375 9 C-5.83558378 4.23229792 -4.94653314 1.03052774 0 0 Z " fill="#000000" transform="translate(62,75.375)"/>
<path d="M0 0 C5.61388816 0.06434256 9.28443023 1.62030623 13.4375 5.375 C17.06680568 10.25187951 17.01255398 15.50281417 16.4375 21.375 C15.4375 22.375 15.4375 22.375 12.4375 22.5 C9.4375 22.375 9.4375 22.375 8.4375 21.375 C8.14493606 19.92087031 7.87804713 18.46152453 7.625 17 C6.99334324 14.11634956 6.67268444 12.65373711 4.75 10.375 C1.6949582 9.05390084 -1.26978832 8.74775981 -4.5625 8.375 C-5.5625 7.375 -5.5625 7.375 -5.6875 4.375 C-5.49565269 -0.22933534 -4.23540998 0.16812314 0 0 Z " fill="#000000" transform="translate(153.5625,29.625)"/>
<path d="M0 0 C1 1 1 1 1.125 4 C1 7 1 7 0 8 C-1.45412969 8.29256394 -2.91347547 8.55945287 -4.375 8.8125 C-7.25865044 9.44415676 -8.72126289 9.76481556 -11 11.6875 C-12.32109916 14.7425418 -12.62724019 17.70728832 -13 21 C-14 22 -14 22 -17 22.125 C-20 22 -20 22 -21 21 C-21.86279913 14.67691498 -21.25012178 9.83738936 -17.47265625 4.62890625 C-12.69707246 -0.65337078 -6.67100887 -0.65328147 0 0 Z " fill="#000000" transform="translate(51,30)"/>
<path d="M0 0 C0.94866647 3.09860292 1.13411421 4.63679576 -0.00390625 7.71875 C-5.66579939 17.82217836 -5.66579939 17.82217836 -11 21 C-15.18604651 20.81395349 -15.18604651 20.81395349 -17 19 C-17.35201086 15.97474721 -17.35033105 14.49814197 -15.57421875 11.97265625 C-14.95160156 11.34230469 -14.32898438 10.71195313 -13.6875 10.0625 C-10.71699739 6.90035206 -8.83441219 3.9584684 -7 0 C-4.3333581 -1.33332095 -2.83319697 -0.67102033 0 0 Z " fill="#000000" transform="translate(190,92)"/>
<path d="M0 0 C3.67586255 1.45324798 4.53107348 3.6397125 6.4140625 7.00390625 C7.73784128 9.34481644 7.73784128 9.34481644 10.5625 11.75 C11.26375 12.513125 11.965 13.27625 12.6875 14.0625 C12.49702381 18.25297619 12.49702381 18.25297619 10.6875 20.0625 C7.55514342 20.45537184 6.14869939 20.39530688 3.5546875 18.5234375 C-3.68599398 10.94201807 -3.68599398 10.94201807 -5.3125 6.0625 C-5.125 3.25 -5.125 3.25 -4.3125 1.0625 C-2.3125 0.0625 -2.3125 0.0625 0 0 Z " fill="#000000" transform="translate(14.3125,90.9375)"/>
<path d="M0 0 C2.5 -0.3125 2.5 -0.3125 5 0 C7.39223697 2.39223697 7.6758631 3.67759676 8 7 C7.01 8.485 7.01 8.485 6 10 C2.875 10.1875 2.875 10.1875 0 10 C-1.125 6.6875 -1.125 6.6875 -2 3 C-1.34 2.01 -0.68 1.02 0 0 Z " fill="#000000" transform="translate(21,112)"/>
<path d="M0 0 C2.375 0.375 2.375 0.375 3.375 1.375 C3.61228814 7.90042373 3.61228814 7.90042373 2.375 10.375 C0.395 10.375 -1.585 10.375 -3.625 10.375 C-4.8125 8.1875 -4.8125 8.1875 -5.625 5.375 C-4.31712068 1.9129665 -3.76481272 0.53783039 0 0 Z " fill="#000000" transform="translate(176.625,113.625)"/>
</svg>
